<svg width="115" height="290" viewBox="0 0 115 290" fill="none" xmlns="http://www.w3.org/2000/svg">
<path fill-rule="evenodd" clip-rule="evenodd" d="M-53 0H115V191H-53V0Z" fill="#4AF6CD"/>
<path d="M7.22 155.36C7.22 152.2 7.68 149.42 8.6 147.02C9.52 144.58 10.9 142.4 12.74 140.48L18.62 145.46C16.34 148.34 15.2 151.36 15.2 154.52C15.2 156.16 15.52 157.42 16.16 158.3C16.76 159.14 17.62 159.56 18.74 159.56C19.54 159.56 20.2 159.34 20.72 158.9C21.24 158.46 21.74 157.72 22.22 156.68C22.7 155.64 23.3 154 24.02 151.76C25.38 147.48 27.1 144.36 29.18 142.4C31.22 140.4 34.06 139.4 37.7 139.4C40.34 139.4 42.68 140.08 44.72 141.44C46.72 142.8 48.28 144.78 49.4 147.38C50.52 149.94 51.08 152.96 51.08 156.44C51.08 163.08 49.06 168.5 45.02 172.7L38.96 167.24C41.68 163.92 43.04 160.46 43.04 156.86C43.04 154.98 42.64 153.52 41.84 152.48C41 151.44 39.9 150.92 38.54 150.92C37.58 150.92 36.8 151.12 36.2 151.52C35.56 151.92 35 152.64 34.52 153.68C34 154.68 33.44 156.16 32.84 158.12C31.36 162.84 29.58 166.16 27.5 168.08C25.42 170 22.8 170.96 19.64 170.96C17.16 170.96 14.98 170.3 13.1 168.98C11.22 167.62 9.78 165.76 8.78 163.4C7.74 161 7.22 158.32 7.22 155.36ZM36.02 101.955C38.9 101.955 41.48 102.595 43.76 103.875C46.04 105.115 47.84 106.995 49.16 109.515C50.44 112.035 51.08 115.115 51.08 118.755C51.08 124.275 49.74 128.455 47.06 131.295C44.34 134.135 40.66 135.555 36.02 135.555H8.3L8.3 124.455H35.66C38.18 124.455 40.04 124.015 41.24 123.135C42.4 122.215 42.98 120.755 42.98 118.755C42.98 116.755 42.38 115.315 41.18 114.435C39.98 113.555 38.14 113.115 35.66 113.115H8.3V101.955H36.02ZM34.64 81.9477V85.0077H50V96.1077H8.3V81.6477C8.3 75.7677 9.36 71.3877 11.48 68.5077C13.6 65.5877 16.86 64.1277 21.26 64.1277C23.9 64.1277 26.1 64.7477 27.86 65.9877C29.62 67.1877 31.2 69.1277 32.6 71.8077L50 61.4277V73.7877L34.64 81.9477ZM27.08 85.0077V81.2877C27.08 77.4477 25.14 75.5277 21.26 75.5277C19.46 75.5277 18.14 76.0677 17.3 77.1477C16.46 78.1877 16.04 79.7677 16.04 81.8877V85.0077H27.08ZM50 58.9006H8.3L8.3 33.2806L16.16 34.4206V47.8006H26.18V36.0406H34.04V47.8006H50V58.9006Z" fill="white"/>
<path d="M7.22 267.92C7.22 262.36 8.98 257.58 12.5 253.58L18.2 259.04C17.12 260.56 16.34 261.94 15.86 263.18C15.34 264.38 15.08 265.76 15.08 267.32C15.08 270.32 16.24 272.68 18.56 274.4C20.88 276.08 24.42 276.92 29.18 276.92C32.66 276.92 35.42 276.64 37.46 276.08C39.46 275.52 40.9 274.68 41.78 273.56C42.66 272.4 43.1 270.92 43.1 269.12C43.1 267.32 42.72 265.68 41.96 264.2H33.38V268.94L25.76 270.02L25.76 253.46H46.52C47.96 255.62 49.08 258.06 49.88 260.78C50.68 263.5 51.08 266.18 51.08 268.82C51.08 281.86 43.76 288.38 29.12 288.38C24.56 288.38 20.64 287.5 17.36 285.74C14.04 283.94 11.52 281.5 9.8 278.42C8.08 275.34 7.22 271.84 7.22 267.92ZM7.22 230.335C7.22 224.295 9.14 219.595 12.98 216.235C16.82 212.875 22.2 211.195 29.12 211.195C33.64 211.195 37.56 211.955 40.88 213.475C44.16 214.955 46.68 217.135 48.44 220.015C50.2 222.895 51.08 226.335 51.08 230.335C51.08 236.375 49.16 241.075 45.32 244.435C41.48 247.755 36.08 249.415 29.12 249.415C24.6 249.415 20.7 248.675 17.42 247.195C14.14 245.675 11.62 243.495 9.86 240.655C8.1 237.775 7.22 234.335 7.22 230.335ZM15.2 230.335C15.2 232.935 16.28 234.855 18.44 236.095C20.6 237.295 24.16 237.895 29.12 237.895C34.08 237.895 37.66 237.275 39.86 236.035C42.02 234.795 43.1 232.895 43.1 230.335C43.1 227.695 42.02 225.775 39.86 224.575C37.7 223.375 34.12 222.775 29.12 222.775C24.16 222.775 20.6 223.375 18.44 224.575C16.28 225.775 15.2 227.695 15.2 230.335Z" fill="white"/>
<rect x="30" y="201" width="20" height="1" transform="rotate(-90 30 201)" fill="white"/>
</svg>
