<svg width="11" height="13" viewBox="0 0 11 13" fill="none" xmlns="http://www.w3.org/2000/svg">
<path fill-rule="evenodd" clip-rule="evenodd" d="M5.39281 0C6.61806 0 7.80766 0.413726 8.74561 1.16506V1.16503C9.97086 2.14588 10.6915 3.54052 10.7787 5.09108C10.8621 6.62194 10.29 8.1197 9.20969 9.20006L5.6284 12.7345C5.48968 12.872 5.24906 12.8708 5.11033 12.7333L1.57965 9.2026C0.496838 8.11979 -0.0764909 6.62081 0.00821855 5.09111C0.0941443 3.54062 0.816027 2.14597 2.04001 1.16506C2.97674 0.413726 4.1676 0 5.39281 0ZM2.98658 5.38962C2.98658 6.71673 4.06568 7.79586 5.39281 7.79586C6.71992 7.79586 7.80027 6.71676 7.79905 5.38962C7.79905 4.06252 6.71995 2.98339 5.39281 2.98339C4.06571 2.98339 2.98658 4.06249 2.98658 5.38962Z" fill="white"/>
<path d="M5.39281 4.2168C4.74582 4.2168 4.22037 4.74225 4.22037 5.38924C4.22037 6.03623 4.74582 6.56168 5.39281 6.56168C6.0398 6.56168 6.56525 6.03623 6.56525 5.38924C6.56525 4.74225 6.0398 4.2168 5.39281 4.2168Z" fill="white"/>
</svg>
